%TF.GenerationSoftware,KiCad,Pcbnew,(6.0.8-1)-1*%
%TF.CreationDate,2023-08-14T14:14:30-03:00*%
%TF.ProjectId,EMMMA-K-v3.1-Slave,454d4d4d-412d-44b2-9d76-332e312d536c,rev?*%
%TF.SameCoordinates,Original*%
%TF.FileFunction,Drillmap*%
%TF.FilePolarity,Positive*%
%FSLAX45Y45*%
G04 Gerber Fmt 4.5, Leading zero omitted, Abs format (unit mm)*
G04 Created by KiCad (PCBNEW (6.0.8-1)-1) date 2023-08-14 14:14:30*
%MOMM*%
%LPD*%
G01*
G04 APERTURE LIST*
%ADD10C,0.100000*%
%ADD11C,0.200000*%
G04 APERTURE END LIST*
D10*
X22021790Y-7068195D02*
X15214590Y-14002395D01*
X14046190Y-14002395D01*
X14020790Y-4070995D01*
X21767790Y-4020195D01*
X22033990Y-4020195D01*
X22021790Y-7068195D01*
D11*
X14273409Y-14317872D02*
X14273409Y-14117872D01*
X14321028Y-14117872D01*
X14349600Y-14127395D01*
X14368647Y-14146443D01*
X14378171Y-14165491D01*
X14387695Y-14203586D01*
X14387695Y-14232157D01*
X14378171Y-14270253D01*
X14368647Y-14289300D01*
X14349600Y-14308348D01*
X14321028Y-14317872D01*
X14273409Y-14317872D01*
X14473409Y-14317872D02*
X14473409Y-14184538D01*
X14473409Y-14222633D02*
X14482933Y-14203586D01*
X14492457Y-14194062D01*
X14511504Y-14184538D01*
X14530552Y-14184538D01*
X14597219Y-14317872D02*
X14597219Y-14184538D01*
X14597219Y-14117872D02*
X14587695Y-14127395D01*
X14597219Y-14136919D01*
X14606742Y-14127395D01*
X14597219Y-14117872D01*
X14597219Y-14136919D01*
X14721028Y-14317872D02*
X14701981Y-14308348D01*
X14692457Y-14289300D01*
X14692457Y-14117872D01*
X14825790Y-14317872D02*
X14806742Y-14308348D01*
X14797219Y-14289300D01*
X14797219Y-14117872D01*
X15054362Y-14317872D02*
X15054362Y-14117872D01*
X15121028Y-14260729D01*
X15187695Y-14117872D01*
X15187695Y-14317872D01*
X15368647Y-14317872D02*
X15368647Y-14213110D01*
X15359123Y-14194062D01*
X15340076Y-14184538D01*
X15301981Y-14184538D01*
X15282933Y-14194062D01*
X15368647Y-14308348D02*
X15349600Y-14317872D01*
X15301981Y-14317872D01*
X15282933Y-14308348D01*
X15273409Y-14289300D01*
X15273409Y-14270253D01*
X15282933Y-14251205D01*
X15301981Y-14241681D01*
X15349600Y-14241681D01*
X15368647Y-14232157D01*
X15463885Y-14184538D02*
X15463885Y-14384538D01*
X15463885Y-14194062D02*
X15482933Y-14184538D01*
X15521028Y-14184538D01*
X15540076Y-14194062D01*
X15549600Y-14203586D01*
X15559123Y-14222633D01*
X15559123Y-14279776D01*
X15549600Y-14298824D01*
X15540076Y-14308348D01*
X15521028Y-14317872D01*
X15482933Y-14317872D01*
X15463885Y-14308348D01*
X15644838Y-14298824D02*
X15654362Y-14308348D01*
X15644838Y-14317872D01*
X15635314Y-14308348D01*
X15644838Y-14298824D01*
X15644838Y-14317872D01*
X15644838Y-14194062D02*
X15654362Y-14203586D01*
X15644838Y-14213110D01*
X15635314Y-14203586D01*
X15644838Y-14194062D01*
X15644838Y-14213110D01*
M02*
